# xmcd CD database file
# 
# Track frame offsets:
# 	150
# 	22791
# 	40925
# 	54029
# 	67491
# 	80217
# 	94337
# 	108667
# 	122036
# 	134446
# 
# Disc length: 1955 seconds
# 
# Submitted via: Nero 5.5.10.42
# 
# Revision: 0
# Processed by: cddbd v1.4PL0 Copyright (c) Steve Scherf et al.
#
DISCID=8c07a10a
DTITLE=Rusty Wier - Black Hat Saloon
DYEAR=1900
DGENRE=
TTITLE0=Black Hat Saloon
TTITLE1=The Devil Lives In Dallas
TTITLE2=Silly Rhymes
TTITLE3=High Road - Low Road
TTITLE4=The Coast Of Colorado
TTITLE5=Tell Me Truly Julie
TTITLE6=Lisa
TTITLE7=Honey Dew
TTITLE8=I Think It's Time (I Learned How To Let Her Go)
TTITLE9=Me And Daisy On The Run
EXTD=
EXTT0=
EXTT1=
EXTT2=
EXTT3=
EXTT4=
EXTT5=
EXTT6=
EXTT7=
EXTT8=
EXTT9=
PLAYORDER=
